<svg xmlns="http://www.w3.org/2000/svg" width="150" height="150" fill="none"><circle cx="75" cy="75" r="74.5" fill="#fff" stroke="#06F"/><path fill="#06F" stroke="#06F" d="m100.547 68.77-.229.444a.933.933 0 0 1-.24-1.488l.004-.004c.15-.15.265-.327.337-.522.072-.194.1-.4.083-.605a1.466 1.466 0 0 0-.495-.958 1.563 1.563 0 0 0-1.047-.387h-1.954c-.063 0-.127.004-.19.012l-.133.016-.122-.052a.58.58 0 0 0-.095-.03l-.233-.055-.104-.214c-1.166-2.403-2.683-5.494-5.783-6.998-2.348-1.139-5.73-1.752-8.785-2.076a65.81 65.81 0 0 0-6.565-.353c-.866 0-3.523.03-6.564.352-3.056.324-6.435.937-8.78 2.073-3.1 1.504-4.617 4.596-5.783 6.998l-.005.01-.01.02-.12.231-.257.036a.327.327 0 0 0-.067.016l-.112.04-.118-.014a1.675 1.675 0 0 0-.191-.012h-1.957a1.564 1.564 0 0 0-1.048.387c-.283.25-.458.591-.494.957-.016.203.014.408.086.6.074.194.189.371.34.519l.006.005a.937.937 0 0 1 .258.807.933.933 0 0 1-.496.68c-1.117.59-2.041 1.086-2.6 1.812l-.396-.305.397.304-.014.018c-.214.277-.919 1.189-1.357 5.968-.248 2.754-.283 5.587-.092 7.39.407 3.794 1.168 6.078 1.192 6.149.087.259.249.49.468.665.219.176.485.288.77.323l.439.054v.467c0 .38.154.748.434 1.02.281.274.664.43 1.066.43h7.001c.402 0 .785-.156 1.065-.43.28-.272.435-.64.435-1.02v-.5h.5c1.01 0 1.707-.173 2.495-.372a20.825 20.825 0 0 1 3.581-.612c3.83-.356 7.638-.478 9.928-.478 2.243 0 6.217.122 10.055.478m15.496-21.797L85.054 90.566h-.003m15.496-21.797-.232.443c1.115.585 2.036 1.082 2.601 1.813v.001l.012.016c.21.268.919 1.174 1.357 5.968.251 2.757.283 5.586.092 7.39-.407 3.796-1.169 6.08-1.192 6.15-.088.259-.25.49-.469.666-.22.175-.487.288-.772.322l-.44.053v.458c0 .38-.155.748-.435 1.02a1.53 1.53 0 0 1-1.066.43h-7c-.403 0-.786-.156-1.066-.43a1.425 1.425 0 0 1-.435-1.02v-.491l-.49-.01c-.938-.016-1.612-.179-2.366-.368m11.901-22.41a.436.436 0 0 1-.114-.693c.202-.2.357-.44.455-.703.098-.263.136-.545.112-.824L88.646 91.18m-3.595-.614c1.214.1 2.418.305 3.595.614m-3.595-.614h-.003l3.598.614M56.453 66.427a1.454 1.454 0 0 0 .1 1.445c.142.212.335.383.561.499.226.115.478.172.732.166 1.318-.035 3.087-.094 5.026-.16 4.21-.141 9.219-.31 12.124-.31 2.938 0 8.03.169 12.268.309 1.88.062 3.593.118 4.875.152.254.007.506-.05.732-.166.226-.116.42-.287.561-.498a1.458 1.458 0 0 0 .101-1.443l-.001-.003-.123-.26-.002-.004-.008-.016c-.497-1.025-1.047-2.157-1.733-3.157-.691-1.007-1.545-1.917-2.67-2.464-1.546-.752-3.872-1.278-6.369-1.619a58.507 58.507 0 0 0-7.631-.503c-2.39 0-5.122.162-7.631.505-2.497.341-4.823.867-6.368 1.617-1.126.546-1.98 1.456-2.673 2.463-.69 1.005-1.242 2.144-1.74 3.175l-.005.011a5.771 5.771 0 0 1-.085.177l-.04.084Zm0 0 .45.218-.45-.218Zm-6.661 5.629h.001c1.642-.247 2.642.042 4.92.7l.487.14c1.81.519 3.138 1.216 3.918 1.79.404.293.449.78.348 1.123-.101.346-.4.722-.89.766a55.26 55.26 0 0 1-6.531.375l-2.253-4.894Zm0 0c-.372.056-.683.178-.907.415-.22.232-.293.51-.336.712-.11.518-.124 1.027.063 1.86m1.18-2.987-1.18 2.987M63.81 86.568c1.29.143 3.552.136 7.33.126a1313.39 1313.39 0 0 1 7.785 0c3.286.01 5.427.015 6.776-.078v.025l.56-.066c.94-.112 1.983-.568 2.624-1.243.325-.343.576-.775.612-1.274.037-.51-.157-1.01-.565-1.463-.245-.275-.597-.508-1.003-.71a9.77 9.77 0 0 0-1.472-.568c-1.127-.347-2.553-.641-4.162-.876-3.203-.466-4.39-.591-7.275-.591-2.643 0-3.976.17-6.522.494l-.744.095c-1.547.196-2.916.469-4.031.815-1.103.343-2.01.771-2.584 1.308l-.002.002c-.452.427-.678.923-.645 1.448.031.505.297.944.63 1.288.66.683 1.738 1.165 2.688 1.268Zm0 0 .054-.497-.053.497h-.001Zm-15.2-11.525c.172.776.723 1.26 1.36 1.539.625.273 1.374.368 2.073.368l-3.432-1.907Zm42.678 1.53c2.21.25 4.433.376 6.658.376.696 0 1.446-.094 2.073-.366.637-.277 1.19-.762 1.36-1.54a5.342 5.342 0 0 0 .07-1.937 1.278 1.278 0 0 0-.234-.59 1.094 1.094 0 0 0-.679-.447c-1.453-.281-3.101.066-5.745.825-1.803.518-3.15 1.202-3.928 1.798-.38.291-.462.743-.387 1.093.069.324.324.74.811.788Z"/></svg>